<?xml version="1.0" standalone="no"?><!DOCTYPE svg PUBLIC "-//W3C//DTD SVG 1.1//EN" "http://www.w3.org/Graphics/SVG/1.1/DTD/svg11.dtd"><svg t="1702288856083" class="icon" viewBox="0 0 1024 1024" version="1.1" xmlns="http://www.w3.org/2000/svg" p-id="3564" width="128" height="128" xmlns:xlink="http://www.w3.org/1999/xlink"><path d="M490.237305 165.122695c-0.053895-3.249853-3.826526-8.418358-11.307116-15.505516-11.215495-10.628042-14.772547-39.655747-14.772547-49.216674s-5.696674-55.554695 42.09179-57.225431c47.783074-1.670737 49.583158 31.258947 49.583157 55.0912 0 4.160674-3.740295 32.121263-10.811284 46.295579-4.489432 9.000421-14.265937 14.767158-13.824 20.560842 0.269474 3.486989 3.853474 7.836295 10.75739 13.053305 19.402105 10.563368 32.633263 15.845053 39.693473 15.845053 10.584926 0 51.857516 10.816674 58.637474 43.595452 4.527158 21.854316 13.069474 70.7584 25.637726 146.717642 17.014568 38.211368 25.519158 66.926484 25.519158 86.156127 0 19.229642 2.926484 37.634695 8.774063 55.204379 20.420716 18.846989 30.628379 30.946358 30.628379 36.298105 0 8.030316-16.157642-7.712337-16.157642-7.712337s-3.977432 15.516295 0 22.269305c3.982821 6.7584 6.483537 14.190484 3.050442 17.688253-2.285137 2.328253-7.582989 3.934316-15.893557 4.80741l-20.442274-4.80741c-3.061221-23.481937-4.106779-38.744926-3.147453-45.783579 1.444379-10.563368 2.145011-7.345853 0-12.476632-2.139621-5.125389-38.238316-98.239326-42.361263-108.630231-2.754021-6.925474-11.350232-38.065853-25.79941-93.410358-12.708379 71.168-15.882779 120.918232-9.52859 149.256084 9.528589 42.501389-8.100379 208.001347-8.100379 224.611705v89.8048c0 19.676968-6.709895 68.909811-20.124295 147.693137 17.752926 17.478063 30.337347 26.2144 37.753264 26.2144 11.129263 0 20.248253-0.145516 20.248252 6.618274 0 4.516379-4.473263 6.639832-13.419789 6.381137-24.716126-1.800084-40.545011-2.700126-47.481263-2.700127-10.407074 0-18.000842 3.675621-22.743579 0-4.742737-3.681011-9.490863-7.491368-4.742737-14.621642 4.742737-7.135663 4.742737-18.755368 4.742737-26.699452 0-7.944084-20.496168-111.416589-15.500127-164.5568 4.996042-53.140211 3.740295-50.849684 0-83.838653-3.740295-32.994358-10.493305-124.416-10.493305-137.819621 0-13.403621-0.032337-23.066947-5.146947-23.066947-5.12 0-7.545263 6.602105-6.327242 17.240926 1.212632 10.633432-9.539368 130.182737-14.265937 147.903326-4.726568 17.720589 4.246905 76.142484 4.246905 96.697937s-16.470232 143.699537-16.470232 152.247242c0 8.542316 6.672168 33.808168 0 36.513684-6.666779 2.700126-16.346274-7.356632-22.501052-3.68101-6.154779 3.681011-34.767495 3.681011-41.703748 3.68101h-19.741642c-7.518316-3.982821-5.281684-7.415916 6.715284-10.293894 17.990063-4.327747 52.224-17.968505 52.224-26.21979 0-8.256674-17.607411-117.587537-17.60741-147.693137v-89.8048c0-21.735747-17.300211-112.160337-14.416842-150.619621 2.888758-38.459284 5.524211-103.359326 2.75941-134.823073-2.759411-31.469137-3.589389-82.221811-6.7584-88.425095-3.1744-6.197895-29.561263 99.629811-38.227536 118.088758-5.772126 12.309558-16.604968 38.7072-32.498527 79.187537 0.862316 42.016337-0.172463 63.024505-3.098947 63.024505-4.387032 0-17.580463 4.807411-22.921432 4.80741-3.557053 0-8.741726-1.606063-15.554021-4.80741 7.044042-22.765137 9.216-35.112421 6.521263-37.052632-4.042105-2.910316-11.242442 9.620211-17.91461 4.807411-6.677558-4.807411 9.410021-14.821053 15.300716-20.415326 3.923537-3.734905 8.633937-9.027368 14.12581-15.882779 3.411537-50.989811 8.192-83.773979 14.330611-98.347116 9.210611-21.859705 25.114947-52.622821 25.114947-83.887158 0-31.258947 19.962611-125.828042 35.807663-134.833853 15.845053-9.000421 72.547705-22.263916 80.044463-30.450526 5.001432-5.459537 7.496758-9.808842 7.496758-13.053305z" fill="#D8D8D8" p-id="3565"></path></svg>